<svg width="20" height="20" viewBox="0 0 20 20" fill="none" xmlns="http://www.w3.org/2000/svg">
<path d="M18.0919 6.07499C18.0145 5.99688 17.9223 5.93489 17.8208 5.89258C17.7192 5.85027 17.6103 5.82849 17.5003 5.82849C17.3903 5.82849 17.2813 5.85027 17.1798 5.89258C17.0782 5.93489 16.9861 5.99688 16.9086 6.07499L11.6669 11.325L8.09194 7.74166C8.01447 7.66355 7.9223 7.60155 7.82076 7.55925C7.71921 7.51694 7.61028 7.49516 7.50027 7.49516C7.39026 7.49516 7.28134 7.51694 7.17979 7.55925C7.07824 7.60155 6.98608 7.66355 6.90861 7.74166L1.90861 12.7417C1.8305 12.8191 1.76851 12.9113 1.7262 13.0128C1.68389 13.1144 1.66211 13.2233 1.66211 13.3333C1.66211 13.4433 1.68389 13.5523 1.7262 13.6538C1.76851 13.7554 1.8305 13.8475 1.90861 13.925C1.98608 14.0031 2.07824 14.0651 2.17979 14.1074C2.28134 14.1497 2.39026 14.1715 2.50027 14.1715C2.61028 14.1715 2.71921 14.1497 2.82076 14.1074C2.9223 14.0651 3.01447 14.0031 3.09194 13.925L7.50027 9.50832L11.0753 13.0917C11.1527 13.1698 11.2449 13.2318 11.3465 13.2741C11.448 13.3164 11.5569 13.3382 11.6669 13.3382C11.777 13.3382 11.8859 13.3164 11.9874 13.2741C12.089 13.2318 12.1811 13.1698 12.2586 13.0917L18.0919 7.25832C18.17 7.18085 18.232 7.08869 18.2744 6.98714C18.3167 6.88559 18.3384 6.77667 18.3384 6.66666C18.3384 6.55665 18.3167 6.44773 18.2744 6.34618C18.232 6.24463 18.17 6.15246 18.0919 6.07499Z" fill="#8D9192"/>
</svg>
