<svg width="16" height="16" viewBox="0 0 16 16" fill="none" xmlns="http://www.w3.org/2000/svg">
<path d="M12.6663 2.66666H11.333V1.99999C11.333 1.82318 11.2628 1.65361 11.1377 1.52859C11.0127 1.40357 10.8432 1.33333 10.6663 1.33333C10.4895 1.33333 10.32 1.40357 10.1949 1.52859C10.0699 1.65361 9.99967 1.82318 9.99967 1.99999V2.66666H5.99967V1.99999C5.99967 1.82318 5.92944 1.65361 5.80441 1.52859C5.67939 1.40357 5.50982 1.33333 5.33301 1.33333C5.1562 1.33333 4.98663 1.40357 4.8616 1.52859C4.73658 1.65361 4.66634 1.82318 4.66634 1.99999V2.66666H3.33301C2.80257 2.66666 2.29387 2.87738 1.91879 3.25245C1.54372 3.62752 1.33301 4.13623 1.33301 4.66666V12.6667C1.33301 13.1971 1.54372 13.7058 1.91879 14.0809C2.29387 14.4559 2.80257 14.6667 3.33301 14.6667H12.6663C13.1968 14.6667 13.7055 14.4559 14.0806 14.0809C14.4556 13.7058 14.6663 13.1971 14.6663 12.6667V4.66666C14.6663 4.13623 14.4556 3.62752 14.0806 3.25245C13.7055 2.87738 13.1968 2.66666 12.6663 2.66666ZM13.333 12.6667C13.333 12.8435 13.2628 13.013 13.1377 13.1381C13.0127 13.2631 12.8432 13.3333 12.6663 13.3333H3.33301C3.1562 13.3333 2.98663 13.2631 2.8616 13.1381C2.73658 13.013 2.66634 12.8435 2.66634 12.6667V7.99999H13.333V12.6667ZM13.333 6.66666H2.66634V4.66666C2.66634 4.48985 2.73658 4.32028 2.8616 4.19526C2.98663 4.07023 3.1562 3.99999 3.33301 3.99999H4.66634V4.66666C4.66634 4.84347 4.73658 5.01304 4.8616 5.13807C4.98663 5.26309 5.1562 5.33333 5.33301 5.33333C5.50982 5.33333 5.67939 5.26309 5.80441 5.13807C5.92944 5.01304 5.99967 4.84347 5.99967 4.66666V3.99999H9.99967V4.66666C9.99967 4.84347 10.0699 5.01304 10.1949 5.13807C10.32 5.26309 10.4895 5.33333 10.6663 5.33333C10.8432 5.33333 11.0127 5.26309 11.1377 5.13807C11.2628 5.01304 11.333 4.84347 11.333 4.66666V3.99999H12.6663C12.8432 3.99999 13.0127 4.07023 13.1377 4.19526C13.2628 4.32028 13.333 4.48985 13.333 4.66666V6.66666Z" fill="#6B7280"/>
</svg>
