<svg width="16" height="17" viewBox="0 0 16 17" fill="none" xmlns="http://www.w3.org/2000/svg">
<path d="M14.6664 5.32667C14.6669 5.23893 14.65 5.15196 14.6169 5.07073C14.5837 4.98951 14.5348 4.91563 14.473 4.85334L11.6464 2.02667C11.5841 1.96489 11.5102 1.916 11.429 1.88283C11.3477 1.84965 11.2608 1.83283 11.173 1.83334C11.0853 1.83283 10.9983 1.84965 10.9171 1.88283C10.8359 1.916 10.762 1.96489 10.6997 2.02667L8.81302 3.91334L1.52635 11.2C1.46456 11.2623 1.41568 11.3362 1.3825 11.4174C1.34933 11.4986 1.33251 11.5856 1.33302 11.6733V14.5C1.33302 14.6768 1.40326 14.8464 1.52828 14.9714C1.65331 15.0964 1.82287 15.1667 1.99969 15.1667H4.82635C4.91964 15.1717 5.01295 15.1572 5.10023 15.1239C5.18752 15.0905 5.26683 15.0393 5.33302 14.9733L12.5797 7.68667L14.473 5.83334C14.5339 5.76873 14.5834 5.69436 14.6197 5.61334C14.6261 5.5602 14.6261 5.50648 14.6197 5.45334C14.6228 5.42231 14.6228 5.39104 14.6197 5.36001L14.6664 5.32667ZM4.55302 13.8333H2.66635V11.9467L9.28635 5.32667L11.173 7.21334L4.55302 13.8333ZM12.113 6.27334L10.2264 4.38667L11.173 3.44667L13.053 5.32667L12.113 6.27334Z" fill="#6B7280"/>
</svg>
