<svg width="66" height="59" viewBox="0 0 66 59" fill="none" xmlns="http://www.w3.org/2000/svg">
<g clip-path="url(#clip0_106_887)">
<path d="M30.3901 20.9222C29.4249 21.2384 28.4661 21.575 27.4932 21.8683C26.1648 22.2697 24.8262 22.6304 23.4927 23.0202C21.2714 23.6629 19.0476 24.2992 16.8302 24.9583C15.0789 25.479 13.3415 26.0441 11.5889 26.5623C9.89721 27.0627 8.19285 27.5199 6.49865 28.0127C5.7049 28.2425 4.92257 28.5105 4.13516 28.762L3.04803 28.6756C2.03202 19.341 1.02998 10.0077 0 0.476257C1.00331 1.10491 1.84279 1.60149 2.65306 2.14251C5.35734 3.95101 8.05526 5.7684 10.7468 7.59468C11.265 7.94393 11.7527 8.33763 12.2709 8.67546C12.5249 8.84056 12.8386 8.92946 13.1243 9.04757C13.2441 9.21358 13.3817 9.36603 13.5345 9.50224C14.3219 10.0585 15.1131 10.6097 15.9183 11.138C17.0702 11.9 18.2526 12.6049 19.3944 13.377C21.3476 14.6979 23.2806 16.0441 25.2212 17.3916C26.1305 18.0189 27.0246 18.6692 27.9479 19.275C28.6769 19.7538 29.4402 20.1792 30.1882 20.6275C30.2593 20.7253 30.3254 20.8282 30.3901 20.9222Z" fill="#A4C54D"/>
<path d="M30.1947 20.6275C29.4467 20.1792 28.6834 19.7538 27.9544 19.275C27.0311 18.6692 26.1371 18.0189 25.2277 17.3915C23.2871 16.0504 21.3542 14.6979 19.4009 13.377C18.2579 12.6049 17.0768 11.8937 15.9249 11.138C15.1197 10.6097 14.3285 10.0585 13.5411 9.50223C13.3882 9.36603 13.2507 9.21357 13.1309 9.04757C13.8027 7.70643 14.486 6.37165 15.1438 5.02544C15.8246 3.63732 16.4824 2.23776 17.1454 0.840748C17.252 0.617226 17.3486 0.387354 17.5264 0C17.7207 0.303533 17.8566 0.508005 17.9848 0.718827C19.218 2.7318 20.4474 4.75112 21.6882 6.75647C22.9138 8.72879 24.1685 10.6821 25.3928 12.6544C26.9448 15.1529 28.4862 17.6574 30.0169 20.1678C30.0905 20.3151 30.15 20.4691 30.1947 20.6275Z" fill="#46A730"/>
<path d="M11.0135 39.4288C11.9982 40.676 12.9837 41.9227 13.9701 43.169C15.2689 44.8124 16.5685 46.4549 17.869 48.0966L19.4692 50.1109L9.21387 58.3914C9.29388 57.3449 9.34087 56.5155 9.42469 55.6875C9.62154 53.6555 9.8349 51.6171 10.0343 49.5813C10.3628 46.1971 10.6892 42.813 11.0135 39.4288Z" fill="#1E1E1E"/>
<path d="M46.4829 28.3657L45.383 29.2712C44.4381 30.0117 43.4856 30.7432 42.5496 31.4963C41.3812 32.4361 40.2319 33.4013 39.0673 34.3462C37.4171 35.684 35.764 37.017 34.1079 38.3455C32.1495 39.9139 30.1708 41.4608 28.2239 43.0445C26.9031 44.1139 25.6331 45.2455 24.3097 46.311C22.7108 47.6001 21.0813 48.851 19.4646 50.1147C18.9312 49.4424 18.3978 48.7706 17.8644 48.0992L13.9705 43.169L11.014 39.4275C10.0475 38.1448 9.0937 36.8532 8.11325 35.5819C6.66543 33.7036 5.19984 31.8405 3.74441 29.9672C3.6174 29.8034 3.51834 29.618 3.40658 29.4414C3.28635 29.1874 3.16613 28.9334 3.0459 28.6794L4.13557 28.7671C4.92298 28.513 5.7053 28.2476 6.49906 28.0165C8.19326 27.525 9.89761 27.0678 11.5893 26.5674C13.3419 26.0492 15.0793 25.4828 16.8306 24.9621C19.0481 24.3042 21.2757 23.668 23.4931 23.0253C24.8266 22.6443 26.1601 22.2735 27.4936 21.8734C28.4665 21.5801 29.4253 21.2384 30.3905 20.926C31.5462 21.0352 32.702 21.1419 33.8577 21.2524C36.15 21.4721 38.4437 21.6791 40.7335 21.9204C41.7952 22.0322 42.8481 22.2112 43.9085 22.3598C43.9949 22.6278 44.0813 22.8971 44.1625 23.165C44.2413 23.339 44.3213 23.5117 44.4 23.6857C44.654 24.1937 44.911 24.6996 45.1709 25.2034C45.585 26.1978 46.0003 27.1973 46.4829 28.3657Z" fill="#D3026F"/>
<path d="M65.9996 40.9681L65.9577 41.057L65.2338 40.6937L64.8286 40.4651L63.457 39.6244L63.076 39.4186L62.568 39.1735C61.3374 38.4407 60.1156 37.6952 58.8748 36.9802C57.8715 36.4011 56.8428 35.8728 55.8268 35.2987C54.3155 34.4389 52.8207 33.5512 51.3094 32.6914C50.2933 32.1148 49.2596 31.5839 48.2499 31.0035C47.2821 30.446 46.3347 29.8529 45.3784 29.2751L46.4782 28.3695C45.9931 27.2011 45.5778 26.2016 45.1638 25.2021C44.9098 24.6941 44.6528 24.1882 44.3929 23.6845C44.3141 23.5105 44.2341 23.3377 44.1554 23.1638C44.0703 22.8958 43.9839 22.6265 43.9014 22.3586L44.9034 23.1752C47.2453 25.1602 49.5796 27.1554 51.9317 29.1277C54.1859 31.0188 56.4719 32.873 58.7211 34.7704C60.6084 36.3643 62.4613 37.9975 64.3295 39.613C64.4794 39.7289 64.6297 39.8441 64.7804 39.9584C64.8515 40.0308 64.9239 40.1019 64.9963 40.173L65.23 40.3191L65.5055 40.5553L65.9996 40.9681Z" fill="#0B9BD6"/>
</g>
<defs>
<clipPath id="clip0_106_887">
<rect width="66" height="58.3914" fill="white"/>
</clipPath>
</defs>
</svg>
