<svg width="16" height="16" viewBox="0 0 16 16" fill="none" xmlns="http://www.w3.org/2000/svg">
<path d="M8.20033 8.14666C8.55604 7.83875 8.84136 7.45792 9.03691 7.03001C9.23246 6.6021 9.33366 6.13713 9.33366 5.66666C9.33366 4.78261 8.98247 3.93476 8.35735 3.30964C7.73223 2.68452 6.88438 2.33333 6.00033 2.33333C5.11627 2.33333 4.26842 2.68452 3.6433 3.30964C3.01818 3.93476 2.66699 4.78261 2.66699 5.66666C2.66699 6.13713 2.76819 6.6021 2.96374 7.03001C3.15929 7.45792 3.44461 7.83875 3.80033 8.14666C2.86709 8.56925 2.0753 9.25168 1.51965 10.1124C0.963989 10.973 0.667973 11.9755 0.666992 13C0.666992 13.1768 0.73723 13.3464 0.862254 13.4714C0.987279 13.5964 1.15685 13.6667 1.33366 13.6667C1.51047 13.6667 1.68004 13.5964 1.80506 13.4714C1.93009 13.3464 2.00033 13.1768 2.00033 13C2.00033 11.9391 2.42175 10.9217 3.1719 10.1716C3.92204 9.42142 4.93946 8.99999 6.00033 8.99999C7.06119 8.99999 8.07861 9.42142 8.82875 10.1716C9.5789 10.9217 10.0003 11.9391 10.0003 13C10.0003 13.1768 10.0706 13.3464 10.1956 13.4714C10.3206 13.5964 10.4902 13.6667 10.667 13.6667C10.8438 13.6667 11.0134 13.5964 11.1384 13.4714C11.2634 13.3464 11.3337 13.1768 11.3337 13C11.3327 11.9755 11.0367 10.973 10.481 10.1124C9.92535 9.25168 9.13357 8.56925 8.20033 8.14666ZM6.00033 7.66666C5.60476 7.66666 5.21808 7.54936 4.88918 7.3296C4.56029 7.10984 4.30394 6.79748 4.15257 6.43203C4.00119 6.06658 3.96158 5.66444 4.03876 5.27648C4.11593 4.88852 4.30641 4.53215 4.58611 4.25245C4.86582 3.97274 5.22218 3.78226 5.61015 3.70509C5.99811 3.62792 6.40024 3.66753 6.76569 3.8189C7.13115 3.97028 7.4435 4.22662 7.66326 4.55552C7.88303 4.88442 8.00033 5.2711 8.00033 5.66666C8.00033 6.19709 7.78961 6.7058 7.41454 7.08087C7.03947 7.45595 6.53076 7.66666 6.00033 7.66666ZM12.4937 7.87999C12.9203 7.39955 13.199 6.80603 13.2962 6.17089C13.3934 5.53574 13.3049 4.88604 13.0415 4.29999C12.7781 3.71395 12.3509 3.21653 11.8113 2.86761C11.2718 2.51869 10.6429 2.33316 10.0003 2.33333C9.82351 2.33333 9.65395 2.40357 9.52892 2.52859C9.4039 2.65361 9.33366 2.82318 9.33366 3C9.33366 3.17681 9.4039 3.34638 9.52892 3.4714C9.65395 3.59642 9.82351 3.66666 10.0003 3.66666C10.5308 3.66666 11.0395 3.87738 11.4145 4.25245C11.7896 4.62752 12.0003 5.13623 12.0003 5.66666C11.9994 6.01682 11.9065 6.3606 11.731 6.66361C11.5555 6.96662 11.3036 7.21825 11.0003 7.39333C10.9015 7.45034 10.8189 7.53177 10.7606 7.62982C10.7022 7.72787 10.67 7.83926 10.667 7.95333C10.6642 8.0665 10.6903 8.17853 10.7428 8.27883C10.7953 8.37914 10.8724 8.46443 10.967 8.52666L11.227 8.69999L11.3137 8.74666C12.1173 9.12781 12.7952 9.73066 13.2676 10.4842C13.7401 11.2378 13.9874 12.1106 13.9803 13C13.9803 13.1768 14.0506 13.3464 14.1756 13.4714C14.3006 13.5964 14.4702 13.6667 14.647 13.6667C14.8238 13.6667 14.9934 13.5964 15.1184 13.4714C15.2434 13.3464 15.3137 13.1768 15.3137 13C15.3191 11.9769 15.0629 10.9695 14.5693 10.0734C14.0757 9.17724 13.3612 8.4222 12.4937 7.87999Z" fill="#6B7280"/>
</svg>
