<svg width="20" height="20" viewBox="0 0 20 20" fill="none" xmlns="http://www.w3.org/2000/svg">
<path d="M9.16667 9.91669V14.1667C9.16667 14.3877 9.25446 14.5997 9.41074 14.7559C9.56702 14.9122 9.77899 15 10 15C10.221 15 10.433 14.9122 10.5893 14.7559C10.7455 14.5997 10.8333 14.3877 10.8333 14.1667V9.91669C11.845 9.71018 12.744 9.13537 13.356 8.3037C13.968 7.47203 14.2493 6.44276 14.1456 5.41542C14.0418 4.38809 13.5602 3.43588 12.7943 2.74341C12.0283 2.05094 11.0326 1.66754 10 1.66754C8.96744 1.66754 7.97165 2.05094 7.20571 2.74341C6.43976 3.43588 5.95821 4.38809 5.85443 5.41542C5.75065 6.44276 6.03202 7.47203 6.644 8.3037C7.25598 9.13537 8.15496 9.71018 9.16667 9.91669ZM10 3.33336C10.4945 3.33336 10.9778 3.47998 11.3889 3.75468C11.8 4.02939 12.1205 4.41983 12.3097 4.87665C12.4989 5.33346 12.5484 5.83613 12.452 6.32108C12.3555 6.80604 12.1174 7.25149 11.7678 7.60113C11.4181 7.95076 10.9727 8.18886 10.4877 8.28532C10.0028 8.38178 9.50011 8.33228 9.04329 8.14306C8.58648 7.95384 8.19603 7.63341 7.92133 7.22228C7.64662 6.81116 7.5 6.32781 7.5 5.83336C7.5 5.17032 7.76339 4.53443 8.23223 4.06559C8.70107 3.59675 9.33696 3.33336 10 3.33336ZM13.5083 12.0167C13.3989 11.9937 13.286 11.9925 13.1761 12.0132C13.0662 12.0338 12.9615 12.0759 12.8678 12.137C12.7742 12.1982 12.6935 12.2771 12.6304 12.3694C12.5673 12.4618 12.523 12.5656 12.5 12.675C12.477 12.7845 12.4758 12.8973 12.4965 13.0072C12.5171 13.1171 12.5592 13.2219 12.6203 13.3155C12.6815 13.4092 12.7604 13.4898 12.8528 13.553C12.9451 13.6161 13.0489 13.6604 13.1583 13.6834C15.05 14.0584 15.8333 14.7334 15.8333 15C15.8333 15.4834 13.7917 16.6667 10 16.6667C6.20833 16.6667 4.16667 15.4834 4.16667 15C4.16667 14.7334 4.95 14.0584 6.84167 13.65C6.9511 13.627 7.05494 13.5827 7.14725 13.5196C7.23956 13.4565 7.31853 13.3758 7.37967 13.2822C7.4408 13.1886 7.48289 13.0838 7.50354 12.9739C7.52418 12.864 7.52298 12.7511 7.5 12.6417C7.47702 12.5323 7.43271 12.4284 7.3696 12.3361C7.30649 12.2438 7.22581 12.1648 7.13218 12.1037C7.03855 12.0426 6.93379 12.0005 6.82389 11.9798C6.71399 11.9592 6.6011 11.9604 6.49167 11.9834C3.95833 12.5667 2.5 13.6584 2.5 15C2.5 17.1917 6.275 18.3334 10 18.3334C13.725 18.3334 17.5 17.1917 17.5 15C17.5 13.6584 16.0417 12.5667 13.5083 12.0167Z" fill="#8D9192"/>
</svg>
