<svg width="16" height="16" viewBox="0 0 16 16" fill="none" xmlns="http://www.w3.org/2000/svg">
<g clip-path="url(#clip0_126_977)">
<path d="M14.667 10H13.3337V8.00001C13.3337 7.82319 13.2634 7.65363 13.1384 7.5286C13.0134 7.40358 12.8438 7.33334 12.667 7.33334H8.66699V6.00001H10.0003C10.1771 6.00001 10.3467 5.92977 10.4717 5.80474C10.5968 5.67972 10.667 5.51015 10.667 5.33334V1.33334C10.667 1.15653 10.5968 0.986958 10.4717 0.861934C10.3467 0.73691 10.1771 0.666672 10.0003 0.666672H6.00033C5.82351 0.666672 5.65395 0.73691 5.52892 0.861934C5.4039 0.986958 5.33366 1.15653 5.33366 1.33334V5.33334C5.33366 5.51015 5.4039 5.67972 5.52892 5.80474C5.65395 5.92977 5.82351 6.00001 6.00033 6.00001H7.33366V7.33334H3.33366C3.15685 7.33334 2.98728 7.40358 2.86225 7.5286C2.73723 7.65363 2.66699 7.82319 2.66699 8.00001V10H1.33366C1.15685 10 0.987279 10.0702 0.862254 10.1953C0.73723 10.3203 0.666992 10.4899 0.666992 10.6667V14.6667C0.666992 14.8435 0.73723 15.0131 0.862254 15.1381C0.987279 15.2631 1.15685 15.3333 1.33366 15.3333H5.33366C5.51047 15.3333 5.68004 15.2631 5.80506 15.1381C5.93009 15.0131 6.00033 14.8435 6.00033 14.6667V10.6667C6.00033 10.4899 5.93009 10.3203 5.80506 10.1953C5.68004 10.0702 5.51047 10 5.33366 10H4.00033V8.66667H12.0003V10H10.667C10.4902 10 10.3206 10.0702 10.1956 10.1953C10.0706 10.3203 10.0003 10.4899 10.0003 10.6667V14.6667C10.0003 14.8435 10.0706 15.0131 10.1956 15.1381C10.3206 15.2631 10.4902 15.3333 10.667 15.3333H14.667C14.8438 15.3333 15.0134 15.2631 15.1384 15.1381C15.2634 15.0131 15.3337 14.8435 15.3337 14.6667V10.6667C15.3337 10.4899 15.2634 10.3203 15.1384 10.1953C15.0134 10.0702 14.8438 10 14.667 10ZM4.66699 11.3333V14H2.00033V11.3333H4.66699ZM6.66699 4.66667V2.00001H9.33366V4.66667H6.66699ZM14.0003 14H11.3337V11.3333H14.0003V14Z" fill="#6B7280"/>
</g>
<defs>
<clipPath id="clip0_126_977">
<rect width="16" height="16" fill="white"/>
</clipPath>
</defs>
</svg>
