<svg width="20" height="20" viewBox="0 0 20 20" fill="none" xmlns="http://www.w3.org/2000/svg">
<g clip-path="url(#clip0_126_1448)">
<path d="M18.333 12.5H16.6663V9.99998C16.6663 9.77897 16.5785 9.56701 16.4223 9.41072C16.266 9.25444 16.054 9.16665 15.833 9.16665H10.833V7.49998H12.4997C12.7207 7.49998 12.9327 7.41218 13.0889 7.2559C13.2452 7.09962 13.333 6.88766 13.333 6.66665V1.66665C13.333 1.44563 13.2452 1.23367 13.0889 1.07739C12.9327 0.92111 12.7207 0.833313 12.4997 0.833313H7.49967C7.27866 0.833313 7.0667 0.92111 6.91042 1.07739C6.75414 1.23367 6.66634 1.44563 6.66634 1.66665V6.66665C6.66634 6.88766 6.75414 7.09962 6.91042 7.2559C7.0667 7.41218 7.27866 7.49998 7.49967 7.49998H9.16634V9.16665H4.16634C3.94533 9.16665 3.73337 9.25444 3.57709 9.41072C3.42081 9.56701 3.33301 9.77897 3.33301 9.99998V12.5H1.66634C1.44533 12.5 1.23337 12.5878 1.07709 12.7441C0.920805 12.9003 0.833008 13.1123 0.833008 13.3333V18.3333C0.833008 18.5543 0.920805 18.7663 1.07709 18.9226C1.23337 19.0788 1.44533 19.1666 1.66634 19.1666H6.66634C6.88736 19.1666 7.09932 19.0788 7.2556 18.9226C7.41188 18.7663 7.49967 18.5543 7.49967 18.3333V13.3333C7.49967 13.1123 7.41188 12.9003 7.2556 12.7441C7.09932 12.5878 6.88736 12.5 6.66634 12.5H4.99967V10.8333H14.9997V12.5H13.333C13.112 12.5 12.9 12.5878 12.7438 12.7441C12.5875 12.9003 12.4997 13.1123 12.4997 13.3333V18.3333C12.4997 18.5543 12.5875 18.7663 12.7438 18.9226C12.9 19.0788 13.112 19.1666 13.333 19.1666H18.333C18.554 19.1666 18.766 19.0788 18.9223 18.9226C19.0785 18.7663 19.1663 18.5543 19.1663 18.3333V13.3333C19.1663 13.1123 19.0785 12.9003 18.9223 12.7441C18.766 12.5878 18.554 12.5 18.333 12.5ZM5.83301 14.1666V17.5H2.49967V14.1666H5.83301ZM8.33301 5.83331V2.49998H11.6663V5.83331H8.33301ZM17.4997 17.5H14.1663V14.1666H17.4997V17.5Z" fill="#8D9192"/>
</g>
<defs>
<clipPath id="clip0_126_1448">
<rect width="20" height="20" fill="white"/>
</clipPath>
</defs>
</svg>
